<?xml version="1.0" standalone="no"?><!DOCTYPE svg PUBLIC "-//W3C//DTD SVG 1.1//EN" "http://www.w3.org/Graphics/SVG/1.1/DTD/svg11.dtd">
<svg x="0.0000mm" y="0.0000mm" width="82.5500mm" height="26.4580mm" viewBox="0.0000 0.0000 82.5500 26.4580" version="1.1" xmlns="http://www.w3.org/2000/svg" shape-rendering="crispEdges">
<title>TBarCode - 11.15.0.16817</title>
<desc>BarCode licensed to MEM:TEC-IT Datenverarbeitung GmbH Internal License</desc>
<g fill="rgb(0%,0%,0%)">
</g>
<g fill="rgb(100%,100%,100%)">
<rect x="0.0000" y="0.0000" width="82.5500" height="26.4580" />
</g>
<g fill="rgb(0%,0%,0%)">
</g>
<g fill="rgb(0%,0%,0%)">
<rect x="0.0000" y="0.0000" width="1.0583" height="20.1864" />
<rect x="1.5875" y="0.0000" width="0.5292" height="20.1864" />
<rect x="3.1750" y="0.0000" width="0.5292" height="20.1864" />
<rect x="5.8208" y="0.0000" width="1.5875" height="20.1864" />
<rect x="7.9375" y="0.0000" width="1.0583" height="20.1864" />
<rect x="10.5833" y="0.0000" width="0.5292" height="20.1864" />
<rect x="11.6417" y="0.0000" width="1.5875" height="20.1864" />
<rect x="13.7583" y="0.0000" width="1.0583" height="20.1864" />
<rect x="15.3458" y="0.0000" width="0.5292" height="20.1864" />
<rect x="17.4625" y="0.0000" width="0.5292" height="20.1864" />
<rect x="19.5792" y="0.0000" width="0.5292" height="20.1864" />
<rect x="21.6958" y="0.0000" width="1.0583" height="20.1864" />
<rect x="23.2833" y="0.0000" width="0.5292" height="20.1864" />
<rect x="24.3417" y="0.0000" width="1.0583" height="20.1864" />
<rect x="26.9875" y="0.0000" width="1.5875" height="20.1864" />
<rect x="29.1042" y="0.0000" width="0.5292" height="20.1864" />
<rect x="31.2208" y="0.0000" width="1.0583" height="20.1864" />
<rect x="32.8083" y="0.0000" width="0.5292" height="20.1864" />
<rect x="34.9250" y="0.0000" width="1.0583" height="20.1864" />
<rect x="36.5125" y="0.0000" width="1.5875" height="20.1864" />
<rect x="39.6875" y="0.0000" width="0.5292" height="20.1864" />
<rect x="40.7458" y="0.0000" width="0.5292" height="20.1864" />
<rect x="42.3333" y="0.0000" width="1.0583" height="20.1864" />
<rect x="43.9208" y="0.0000" width="1.5875" height="20.1864" />
<rect x="46.5667" y="0.0000" width="0.5292" height="20.1864" />
<rect x="47.6250" y="0.0000" width="1.5875" height="20.1864" />
<rect x="49.7417" y="0.0000" width="2.1167" height="20.1864" />
<rect x="52.3875" y="0.0000" width="2.1167" height="20.1864" />
<rect x="55.0333" y="0.0000" width="0.5292" height="20.1864" />
<rect x="56.6208" y="0.0000" width="0.5292" height="20.1864" />
<rect x="58.2083" y="0.0000" width="0.5292" height="20.1864" />
<rect x="60.3250" y="0.0000" width="0.5292" height="20.1864" />
<rect x="62.4417" y="0.0000" width="1.0583" height="20.1864" />
<rect x="64.0292" y="0.0000" width="0.5292" height="20.1864" />
<rect x="65.6167" y="0.0000" width="2.1167" height="20.1864" />
<rect x="68.7917" y="0.0000" width="0.5292" height="20.1864" />
<rect x="69.8500" y="0.0000" width="1.0583" height="20.1864" />
<rect x="73.0250" y="0.0000" width="0.5292" height="20.1864" />
<rect x="74.0833" y="0.0000" width="0.5292" height="20.1864" />
<rect x="75.6708" y="0.0000" width="1.0583" height="20.1864" />
<rect x="78.3167" y="0.0000" width="1.5875" height="20.1864" />
<rect x="80.4333" y="0.0000" width="0.5292" height="20.1864" />
<rect x="81.4917" y="0.0000" width="1.0583" height="20.1864" />
</g>
<g fill="rgb(0%,0%,0%)">
<text x="41.2750" y="25.2821" transform="rotate(360 41.2750,25.2821)" text-anchor="middle" font-family="Arial" font-size="5.6444" >ZYCKET-863585</text>
</g>
</svg>
